<mxfile host="app.diagrams.net" agent="Mozilla/5.0 (Windows NT 10.0; Win64; x64) AppleWebKit/537.36 (KHTML, like Gecko) Chrome/129.0.0.0 Safari/537.36" version="24.7.12">
  <diagram name="Página-1" id="Db-c0_9KCXJ1YJ-VfSnr">
    <mxGraphModel dx="1477" dy="600" grid="1" gridSize="10" guides="1" tooltips="1" connect="1" arrows="1" fold="1" page="1" pageScale="1" pageWidth="827" pageHeight="1169" math="0" shadow="0">
      <root>
        <mxCell id="0" />
        <mxCell id="1" parent="0" />
        <mxCell id="BBb9wypjzmv52dyXDuku-10" value="&lt;b&gt;&lt;font style=&quot;font-size: 24px;&quot;&gt;Diagrama de Fluxo&lt;/font&gt;&lt;/b&gt;" style="text;html=1;align=center;verticalAlign=middle;resizable=0;points=[];autosize=1;strokeColor=none;fillColor=none;" vertex="1" parent="1">
          <mxGeometry x="280" y="500" width="240" height="40" as="geometry" />
        </mxCell>
        <mxCell id="BBb9wypjzmv52dyXDuku-18" value="" style="endArrow=classic;html=1;rounded=0;" edge="1" parent="1">
          <mxGeometry width="50" height="50" relative="1" as="geometry">
            <mxPoint x="160" y="604.29" as="sourcePoint" />
            <mxPoint x="190" y="604.29" as="targetPoint" />
          </mxGeometry>
        </mxCell>
        <mxCell id="BBb9wypjzmv52dyXDuku-19" value="" style="endArrow=classic;html=1;rounded=0;" edge="1" parent="1">
          <mxGeometry width="50" height="50" relative="1" as="geometry">
            <mxPoint x="440" y="660.29" as="sourcePoint" />
            <mxPoint x="500" y="660" as="targetPoint" />
          </mxGeometry>
        </mxCell>
        <mxCell id="BBb9wypjzmv52dyXDuku-24" value="Cliente" style="rounded=0;whiteSpace=wrap;html=1;" vertex="1" parent="1">
          <mxGeometry x="30" y="585" width="120" height="35" as="geometry" />
        </mxCell>
        <mxCell id="BBb9wypjzmv52dyXDuku-26" value="Cardápio" style="rounded=0;whiteSpace=wrap;html=1;" vertex="1" parent="1">
          <mxGeometry x="200" y="585" width="130" height="35" as="geometry" />
        </mxCell>
        <mxCell id="BBb9wypjzmv52dyXDuku-28" value="" style="endArrow=classic;html=1;rounded=0;" edge="1" parent="1">
          <mxGeometry width="50" height="50" relative="1" as="geometry">
            <mxPoint x="340" y="604.29" as="sourcePoint" />
            <mxPoint x="370" y="604.29" as="targetPoint" />
          </mxGeometry>
        </mxCell>
        <mxCell id="BBb9wypjzmv52dyXDuku-29" value="Pedido" style="rounded=0;whiteSpace=wrap;html=1;" vertex="1" parent="1">
          <mxGeometry x="380" y="585" width="120" height="35" as="geometry" />
        </mxCell>
        <mxCell id="BBb9wypjzmv52dyXDuku-34" value="" style="endArrow=none;html=1;rounded=0;" edge="1" parent="1">
          <mxGeometry width="50" height="50" relative="1" as="geometry">
            <mxPoint x="440" y="660" as="sourcePoint" />
            <mxPoint x="440" y="630" as="targetPoint" />
          </mxGeometry>
        </mxCell>
        <mxCell id="BBb9wypjzmv52dyXDuku-35" value="Pedido chega para o funcionário" style="rounded=0;whiteSpace=wrap;html=1;" vertex="1" parent="1">
          <mxGeometry x="520" y="640" width="160" height="40" as="geometry" />
        </mxCell>
        <mxCell id="BBb9wypjzmv52dyXDuku-36" value="Funcionário" style="rounded=0;whiteSpace=wrap;html=1;" vertex="1" parent="1">
          <mxGeometry x="30" y="700" width="120" height="35" as="geometry" />
        </mxCell>
        <mxCell id="BBb9wypjzmv52dyXDuku-37" value="" style="endArrow=classic;html=1;rounded=0;" edge="1" parent="1">
          <mxGeometry width="50" height="50" relative="1" as="geometry">
            <mxPoint x="160" y="716.79" as="sourcePoint" />
            <mxPoint x="190" y="716.79" as="targetPoint" />
          </mxGeometry>
        </mxCell>
        <mxCell id="BBb9wypjzmv52dyXDuku-38" value="Cadastra Ingredientes" style="rounded=0;whiteSpace=wrap;html=1;" vertex="1" parent="1">
          <mxGeometry x="200" y="700" width="130" height="35" as="geometry" />
        </mxCell>
        <mxCell id="BBb9wypjzmv52dyXDuku-40" style="edgeStyle=orthogonalEdgeStyle;rounded=0;orthogonalLoop=1;jettySize=auto;html=1;exitX=0.5;exitY=1;exitDx=0;exitDy=0;" edge="1" parent="1" source="BBb9wypjzmv52dyXDuku-38" target="BBb9wypjzmv52dyXDuku-38">
          <mxGeometry relative="1" as="geometry" />
        </mxCell>
        <mxCell id="BBb9wypjzmv52dyXDuku-41" value="Gerencia Estoque" style="rounded=0;whiteSpace=wrap;html=1;" vertex="1" parent="1">
          <mxGeometry x="380" y="700" width="130" height="35" as="geometry" />
        </mxCell>
        <mxCell id="BBb9wypjzmv52dyXDuku-42" value="" style="endArrow=classic;html=1;rounded=0;" edge="1" parent="1">
          <mxGeometry width="50" height="50" relative="1" as="geometry">
            <mxPoint x="340" y="716.79" as="sourcePoint" />
            <mxPoint x="370" y="716.79" as="targetPoint" />
          </mxGeometry>
        </mxCell>
        <mxCell id="BBb9wypjzmv52dyXDuku-43" value="" style="endArrow=classic;html=1;rounded=0;" edge="1" parent="1">
          <mxGeometry width="50" height="50" relative="1" as="geometry">
            <mxPoint x="520" y="716.79" as="sourcePoint" />
            <mxPoint x="550" y="716.79" as="targetPoint" />
          </mxGeometry>
        </mxCell>
        <mxCell id="BBb9wypjzmv52dyXDuku-44" value="Visualiza e Conclui os Pedidos" style="rounded=0;whiteSpace=wrap;html=1;" vertex="1" parent="1">
          <mxGeometry x="570" y="700" width="130" height="35" as="geometry" />
        </mxCell>
        <mxCell id="BBb9wypjzmv52dyXDuku-45" value="Administrador" style="rounded=0;whiteSpace=wrap;html=1;" vertex="1" parent="1">
          <mxGeometry x="30" y="800" width="120" height="35" as="geometry" />
        </mxCell>
        <mxCell id="BBb9wypjzmv52dyXDuku-46" value="Cadastra Funcionários" style="rounded=0;whiteSpace=wrap;html=1;" vertex="1" parent="1">
          <mxGeometry x="205" y="800" width="135" height="35" as="geometry" />
        </mxCell>
        <mxCell id="BBb9wypjzmv52dyXDuku-47" value="Cadastra Pratos" style="rounded=0;whiteSpace=wrap;html=1;" vertex="1" parent="1">
          <mxGeometry x="390" y="800" width="135" height="35" as="geometry" />
        </mxCell>
        <mxCell id="BBb9wypjzmv52dyXDuku-48" value="Gerencia Cardápio" style="rounded=0;whiteSpace=wrap;html=1;" vertex="1" parent="1">
          <mxGeometry x="580" y="800" width="135" height="35" as="geometry" />
        </mxCell>
        <mxCell id="BBb9wypjzmv52dyXDuku-51" value="" style="endArrow=classic;html=1;rounded=0;" edge="1" parent="1">
          <mxGeometry width="50" height="50" relative="1" as="geometry">
            <mxPoint x="160" y="816.79" as="sourcePoint" />
            <mxPoint x="190" y="816.79" as="targetPoint" />
          </mxGeometry>
        </mxCell>
        <mxCell id="BBb9wypjzmv52dyXDuku-52" value="" style="endArrow=classic;html=1;rounded=0;" edge="1" parent="1">
          <mxGeometry width="50" height="50" relative="1" as="geometry">
            <mxPoint x="350" y="816.79" as="sourcePoint" />
            <mxPoint x="380" y="816.79" as="targetPoint" />
          </mxGeometry>
        </mxCell>
        <mxCell id="BBb9wypjzmv52dyXDuku-53" value="" style="endArrow=classic;html=1;rounded=0;" edge="1" parent="1">
          <mxGeometry width="50" height="50" relative="1" as="geometry">
            <mxPoint x="540" y="816.79" as="sourcePoint" />
            <mxPoint x="570" y="816.79" as="targetPoint" />
          </mxGeometry>
        </mxCell>
        <mxCell id="BBb9wypjzmv52dyXDuku-54" value="" style="curved=1;endArrow=classic;html=1;rounded=0;" edge="1" parent="1">
          <mxGeometry width="50" height="50" relative="1" as="geometry">
            <mxPoint x="270" y="785" as="sourcePoint" />
            <mxPoint x="90" y="750" as="targetPoint" />
            <Array as="points">
              <mxPoint x="240" y="760" />
              <mxPoint x="160" y="785" />
              <mxPoint x="140" y="785" />
              <mxPoint x="110" y="780" />
            </Array>
          </mxGeometry>
        </mxCell>
        <mxCell id="BBb9wypjzmv52dyXDuku-55" value="" style="endArrow=none;html=1;rounded=0;" edge="1" parent="1">
          <mxGeometry width="50" height="50" relative="1" as="geometry">
            <mxPoint x="730" y="820" as="sourcePoint" />
            <mxPoint x="770" y="560" as="targetPoint" />
            <Array as="points">
              <mxPoint x="770" y="820" />
            </Array>
          </mxGeometry>
        </mxCell>
        <mxCell id="BBb9wypjzmv52dyXDuku-56" value="" style="endArrow=none;html=1;rounded=0;" edge="1" parent="1">
          <mxGeometry width="50" height="50" relative="1" as="geometry">
            <mxPoint x="90" y="560" as="sourcePoint" />
            <mxPoint x="770" y="560" as="targetPoint" />
          </mxGeometry>
        </mxCell>
        <mxCell id="BBb9wypjzmv52dyXDuku-57" value="" style="endArrow=classic;html=1;rounded=0;" edge="1" parent="1">
          <mxGeometry width="50" height="50" relative="1" as="geometry">
            <mxPoint x="90" y="560" as="sourcePoint" />
            <mxPoint x="90" y="580" as="targetPoint" />
            <Array as="points">
              <mxPoint x="90" y="560" />
            </Array>
          </mxGeometry>
        </mxCell>
      </root>
    </mxGraphModel>
  </diagram>
</mxfile>
